# xmcd CD database file
#
# Track frame offsets:
#	150
#	20625
#	43200
#	63750
#	82968
#	102581
#	123900
#	148425
#	168393
#	190068
#	211668
#	235256
#
# Disc length: 3388 seconds
#
# Revision: 0
# Processed by: cddbd v1.5.2PL0 Copyright (c) Steve Scherf et al.
# Submitted via: CDex 1.50
#
DISCID=a60d3a0c
DTITLE=Rory Charles - Roar
DYEAR=2013
DGENRE=Jazz
TTITLE0=Bang Bang
TTITLE1=Pull your head out
TTITLE2=Here we are
TTITLE3=This Town´s singing (Aesop socks)
TTITLE4=Sodastream
TTITLE5=Fallen from the sun
TTITLE6=Where is the light
TTITLE7=Mr Policeman
TTITLE8=Underground
TTITLE9=Friends of mine
TTITLE10=War and peace are lovers
TTITLE11=Overground
EXTD=YEAR: 2013
EXTT0=
EXTT1=
EXTT2=
EXTT3=
EXTT4=
EXTT5=
EXTT6=
EXTT7=
EXTT8=
EXTT9=
EXTT10=
EXTT11=
PLAYORDER=
